<?xml version="1.0" encoding="UTF-8"?>
<svg id="Layer_2" data-name="Layer 2" xmlns="http://www.w3.org/2000/svg" viewBox="0 0 1161.26 231.02">
  <defs>
    <style>
      .cls-1 {
        fill: #0093f8;
      }

      .cls-2 {
        fill: #1d0663;
      }
    </style>
  </defs>
  <g id="Layer_1-2" data-name="Layer 1">
    <g>
      <g>
        <polygon class="cls-2" points="358.47 203.41 328.52 203.41 328.52 24.76 358.47 24.76 358.47 132.95 358.97 132.95 407.79 79.11 446.04 79.11 387.66 140 448.3 203.41 409.3 203.41 358.94 147.83 358.47 147.83 358.47 203.41"/>
        <path class="cls-2" d="M563.42,94.33c12.5,12.33,18.75,27.97,18.75,46.93s-6.25,34.6-18.75,46.93c-12.5,12.33-28.56,18.5-48.19,18.5s-35.69-6.16-48.19-18.5c-12.5-12.33-18.75-27.97-18.75-46.93s6.25-34.6,18.75-46.93c12.49-12.33,28.56-18.5,48.19-18.5s35.69,6.17,48.19,18.5M488.69,168.31c6.8,6.96,15.64,10.44,26.55,10.44s19.71-3.48,26.42-10.44c6.71-6.96,10.07-15.98,10.07-27.05s-3.36-20.09-10.07-27.05c-6.71-6.96-15.52-10.44-26.42-10.44s-19.75,3.49-26.55,10.44c-6.79,6.97-10.19,15.98-10.19,27.05s3.4,20.09,10.19,27.05"/>
        <path class="cls-2" d="M710.98,203.41h-29.94v-70.96c0-9.56-2.31-16.73-6.92-21.51-4.62-4.78-10.7-7.17-18.24-7.17s-13.84,2.35-18.37,7.05c-4.53,4.7-6.79,11.91-6.79,21.64v70.96h-29.94v-70.96c0-18.62,4.78-32.71,14.34-42.27,9.56-9.56,22.14-14.34,37.74-14.34,19.12,0,33.38,7.3,42.78,21.89h.5c9.06-14.59,23.31-21.89,42.78-21.89,15.6,0,28.18,4.78,37.74,14.34,9.56,9.56,14.34,23.65,14.34,42.27v70.96h-29.94v-70.96c0-9.72-2.26-16.94-6.79-21.64-4.53-4.7-10.65-7.05-18.37-7.05s-13.59,2.39-18.12,7.17c-4.53,4.78-6.79,11.96-6.79,21.51v70.96Z"/>
        <path class="cls-2" d="M871.3,203.41h-29.94v-70.96c0-9.56-2.31-16.73-6.92-21.51-4.62-4.78-10.7-7.17-18.24-7.17s-13.84,2.35-18.37,7.05c-4.53,4.7-6.79,11.91-6.79,21.64v70.96h-29.94v-70.96c0-18.62,4.78-32.71,14.34-42.27,9.56-9.56,22.14-14.34,37.74-14.34,19.12,0,33.38,7.3,42.78,21.89h.5c9.06-14.59,23.31-21.89,42.78-21.89,15.6,0,28.18,4.78,37.74,14.34,9.56,9.56,14.34,23.65,14.34,42.27v70.96h-29.94v-70.96c0-9.72-2.26-16.94-6.79-21.64-4.53-4.7-10.65-7.05-18.37-7.05s-13.59,2.39-18.12,7.17c-4.53,4.78-6.79,11.96-6.79,21.51v70.96Z"/>
        <rect class="cls-2" x="977.48" y="79.11" width="29.94" height="124.3"/>
        <rect class="cls-2" x="977.48" y="24.87" width="29.94" height="28.91"/>
        <polygon class="cls-2" points="1060.87 203.41 1025.63 203.41 1071.44 140 1027.65 79.11 1063.88 79.11 1093.68 123.56 1094.14 123.69 1123.76 79.11 1159.25 79.11 1114.95 140 1161.26 203.41 1125.03 203.41 1092.88 155.98 1092.47 155.78 1060.87 203.41"/>
      </g>
      <g>
        <path class="cls-1" d="M176.3,121.59c-11.81,0-22.72,3.78-31.67,10.15l76.23,76.23c6.37-8.94,10.15-19.85,10.15-31.67,0-30.22-24.5-54.71-54.71-54.71"/>
        <path class="cls-1" d="M207.97,10.15c-8.94-6.37-19.85-10.15-31.67-10.15-30.22,0-54.71,24.5-54.71,54.72,0,11.81,3.78,22.72,10.15,31.67L207.97,10.15Z"/>
        <path class="cls-1" d="M176.3,109.43c30.22,0,54.71-24.5,54.71-54.71,0-11.82-3.78-22.73-10.15-31.67l-76.23,76.23c8.94,6.37,19.85,10.15,31.67,10.15"/>
        <path class="cls-1" d="M45.59,108.61V.82C19.73,5.17,0,27.61,0,54.72s19.73,49.54,45.59,53.89"/>
        <path class="cls-1" d="M131.74,144.63c-6.37,8.94-10.15,19.86-10.15,31.67,0,30.22,24.5,54.72,54.72,54.72,11.82,0,22.73-3.78,31.67-10.15l-76.23-76.23Z"/>
        <path class="cls-1" d="M63.83.82v107.79c25.87-4.35,45.59-26.79,45.59-53.89S89.7,5.17,63.83.82"/>
        <path class="cls-1" d="M63.83,122.41v107.79c25.87-4.35,45.59-26.79,45.59-53.89s-19.73-49.54-45.59-53.89"/>
        <path class="cls-1" d="M45.59,122.41C19.73,126.76,0,149.2,0,176.3s19.73,49.54,45.59,53.89v-107.79Z"/>
      </g>
    </g>
  </g>
</svg>